<?xml version="1.0" encoding="UTF-8"?>
<svg width="25px" height="23px" viewBox="0 0 25 23" version="1.1" xmlns="http://www.w3.org/2000/svg" xmlns:xlink="http://www.w3.org/1999/xlink">
    <g id="Mobile" stroke="none" stroke-width="1" fill="none" fill-rule="evenodd">
        <g id="Navigation---iPhone-SE" transform="translate(-44.000000, -524.000000)" fill-rule="nonzero">
            <g id="blog-active" transform="translate(44.000000, 524.000000)">
                <g id="blog-icon-active">
                    <path d="M22.0123296,0 L2.98741981,0 C1.3374599,0 0,1.28956947 0,2.87851622 L0,14.0342466 C0,15.6260929 1.3374599,16.9139709 2.98741981,16.9139709 L5.54731355,16.9139709 L5.54731355,21.7847113 C5.54731355,22.3837075 6.05252606,22.8705882 6.67502005,22.8705882 C6.99328388,22.8705882 7.28097434,22.7442167 7.48521451,22.5407658 L7.48671812,22.5407658 L13.3056836,16.9139709 L22.0125802,16.9139709 C23.6620389,16.9139709 25,15.6260929 25,14.0342466 L25,2.87851622 C24.9997494,1.28956947 23.6617883,0 22.0123296,0 Z" id="Path" fill="#0095CC"></path>
                    <path d="M7.22483962,10.3963736 C6.1897618,10.3963736 5.34983962,9.54261739 5.34983962,8.49049124 C5.34983962,7.43836508 6.1897618,6.58460888 7.22483962,6.58460888 C8.25991743,6.58460888 9.09983962,7.43836508 9.09983962,8.49049124 C9.09983962,9.54229846 8.25991743,10.3963736 7.22483962,10.3963736 Z" id="Path" fill="#FFFFFF"></path>
                    <path d="M13.0575882,10.3963736 C12.0219905,10.3963736 11.1825882,9.54261739 11.1825882,8.49049124 C11.1825882,7.43836508 12.0219905,6.58460888 13.0575882,6.58460888 C14.0931859,6.58460888 14.9325882,7.43836508 14.9325882,8.49049124 C14.9325882,9.54229846 14.0931859,10.3963736 13.0575882,10.3963736 Z" id="Path" fill="#FFFFFF"></path>
                    <path d="M18.9730353,10.3963736 C17.9379575,10.3963736 17.0980353,9.54261739 17.0980353,8.49049124 C17.0980353,7.43836508 17.9379575,6.58460888 18.9730353,6.58460888 C20.0081131,6.58460888 20.8480353,7.43836508 20.8480353,8.49049124 C20.8480353,9.54229846 20.0081131,10.3963736 18.9730353,10.3963736 Z" id="Path" fill="#FFFFFF"></path>
                </g>
            </g>
        </g>
    </g>
</svg>