<?xml version="1.0" encoding="UTF-8"?><svg width="330px" height="330px" viewBox="0 0 330 330" version="1.1" xmlns="http://www.w3.org/2000/svg" xmlns:xlink="http://www.w3.org/1999/xlink"><g id="icon" stroke="none" stroke-width="1" fill="none" fill-rule="evenodd"><path d="M0,0 L330,0 L330,330 L0,330 L0,0 Z M57.3242188,238 L105.664062,238 C118.750065,238 128.971317,237.023447 136.328125,235.070312 C143.684933,232.986969 150.195284,229.699241 155.859375,225.207031 C163.541705,219.087209 169.36847,211.030649 173.339844,201.037109 C177.311218,191.04357 179.296875,179.438868 179.296875,166.222656 C179.296875,142.003785 173.877007,123.93756 163.037109,112.023438 C152.197211,100.109315 135.742298,94.1523438 113.671875,94.1523438 L57.3242188,94.1523438 L57.3242188,238 Z M86.328125,212.023438 L86.328125,119.445312 L113.671875,119.445312 C125.846415,119.445312 134.798148,123.221316 140.527344,130.773438 C146.256539,138.325559 149.121094,150.141847 149.121094,166.222656 C149.121094,182.303466 146.028677,193.989547 139.84375,201.28125 C133.658823,208.442744 123.730537,212.023438 110.058594,212.023438 L86.328125,212.023438 Z M192.734375,238 L221.933594,238 L221.933594,176.769531 L284.335938,176.769531 L284.335938,151.769531 L221.933594,151.769531 L221.933594,119.152344 L293.125,119.152344 L293.125,94.1523438 L192.734375,94.1523438 L192.734375,238 Z" id="Combined-Shape" fill="#FFFFFF"></path></g></svg>