<?xml version="1.0" encoding="UTF-8"?>
<svg width="307px" height="60px" viewBox="0 0 307 60" version="1.1" xmlns="http://www.w3.org/2000/svg" xmlns:xlink="http://www.w3.org/1999/xlink">
    <g id="logo" stroke="none" stroke-width="1" fill="none" fill-rule="evenodd">
        <path d="M75,41.4325397 L75,20 L83.4756237,20 C86.7953819,20 89.2704743,20.8875573 90.9009751,22.6626984 C92.5314758,24.4378396 93.3467139,27.1296116 93.3467139,30.7380952 C93.3467139,32.7072409 93.0480381,34.43628 92.4506775,35.9252646 C91.8533168,37.4142491 90.9768746,38.6146339 89.8213246,39.526455 C88.9693512,40.1957705 87.9900862,40.6856246 86.8835001,40.9960317 C85.776914,41.2870385 84.2394679,41.4325397 82.2711156,41.4325397 L75,41.4325397 Z M79.3626694,37.5621693 L82.9321261,37.5621693 C84.9886135,37.5621693 86.4819927,37.0286649 87.4123085,35.9616402 C88.3426242,34.875215 88.8077751,33.1340508 88.8077751,30.7380952 C88.8077751,28.3421397 88.3768985,26.5815753 87.5151323,25.4563492 C86.6533662,24.3311231 85.3068767,23.7685185 83.4756237,23.7685185 L79.3626694,23.7685185 L79.3626694,37.5621693 Z M95.6969735,33.5026455 C95.6969735,30.8738846 96.4167333,28.8077677 97.8562745,27.3042328 C99.2958157,25.8006979 101.273931,25.0489418 103.79068,25.0489418 C106.297636,25.0489418 108.270855,25.8006979 109.710396,27.3042328 C111.15973,28.7980674 111.884386,30.8641843 111.884386,33.5026455 C111.884386,36.1508069 111.15973,38.2217738 109.710396,39.7156085 C108.270855,41.2191433 106.297636,41.9708995 103.79068,41.9708995 C101.273931,41.9708995 99.2958157,41.2191433 97.8562745,39.7156085 C96.4167333,38.2217738 95.6969735,36.1508069 95.6969735,33.5026455 Z M100.030265,33.5026455 C100.030265,35.0837822 100.353422,36.2987171 100.999747,37.1474868 C101.646071,37.9962564 102.576373,38.4206349 103.79068,38.4206349 C104.975608,38.4206349 105.893669,37.9962564 106.54489,37.1474868 C107.196111,36.2987171 107.521717,35.0837822 107.521717,33.5026455 C107.521717,31.9312091 107.201008,30.7235492 106.55958,29.8796296 C105.918151,29.0357101 104.995194,28.6137566 103.79068,28.6137566 C102.576373,28.6137566 101.646071,29.0357101 100.999747,29.8796296 C100.353422,30.7235492 100.030265,31.9312091 100.030265,33.5026455 Z M114.792833,41.4325397 L114.792833,25.6164021 L118.847031,25.6164021 L118.847031,27.3624339 C120.041752,25.8976999 121.520442,25.1653439 123.283145,25.1653439 C124.291804,25.1653439 125.153557,25.3496454 125.868431,25.718254 C126.583305,26.0868625 127.205139,26.6785674 127.73395,27.4933862 C128.292139,26.707668 128.950695,26.1232382 129.709637,25.7400794 C130.468578,25.3569205 131.322987,25.1653439 132.272888,25.1653439 C133.878907,25.1653439 135.151952,25.6309477 136.09206,26.5621693 C137.032169,27.4933909 137.502216,28.7641013 137.502216,30.3743386 L137.502216,41.4325397 L133.286438,41.4325397 L133.286438,31.2473545 C133.286438,30.4810367 133.078344,29.8869069 132.66215,29.4649471 C132.245956,29.0429873 131.665742,28.8320106 130.921489,28.8320106 C130.089101,28.8320106 129.428098,29.1011878 128.938458,29.6395503 C128.448818,30.1779127 128.204002,30.9126938 128.204002,31.8439153 L128.204002,41.4325397 L124.032291,41.4325397 L124.032291,31.276455 C124.032291,30.4907368 123.829093,29.8869069 123.422692,29.4649471 C123.016291,29.0429873 122.445869,28.8320106 121.711409,28.8320106 C120.879022,28.8320106 120.220466,29.1036128 119.735722,29.6468254 C119.250979,30.190038 119.008611,30.9320941 119.008611,31.8730159 L119.008611,41.4325397 L114.792833,41.4325397 Z M141.262631,41.4325397 L141.262631,25.6164021 L145.537166,25.6164021 L145.537166,41.4325397 L141.262631,41.4325397 Z M141.262631,23.8558201 L141.262631,20 L145.537166,20 L145.537166,23.8558201 L141.262631,23.8558201 Z M149.356338,41.4325397 L149.356338,25.6164021 L153.542738,25.6164021 L153.542738,27.4933862 C154.140098,26.7270685 154.842721,26.1523388 155.650627,25.7691799 C156.458533,25.386021 157.366801,25.1944444 158.375459,25.1944444 C161.891073,25.1944444 163.648854,27.0132093 163.648854,30.6507937 L163.648854,41.4325397 L159.374319,41.4325397 L159.374319,31.8730159 C159.374319,30.7380896 159.180915,29.9281329 158.794099,29.4431217 C158.407284,28.9581104 157.778106,28.7156085 156.906547,28.7156085 C156.407114,28.7156085 155.954204,28.7932091 155.547803,28.9484127 C155.141402,29.1036163 154.796211,29.3242931 154.51222,29.6104497 C154.228229,29.8966064 154.010342,30.2458092 153.858554,30.6580688 C153.706766,31.0703283 153.630872,31.5335071 153.630872,32.047619 L153.630872,41.4325397 L149.356338,41.4325397 Z M167.409269,41.4325397 L167.409269,25.6164021 L171.683804,25.6164021 L171.683804,41.4325397 L167.409269,41.4325397 Z M167.409269,23.8558201 L167.409269,20 L171.683804,20 L171.683804,23.8558201 L167.409269,23.8558201 Z M189.369507,35.4669312 C189.193237,37.4748778 188.453892,39.0608407 187.15145,40.2248677 C185.839215,41.3888947 184.164672,41.9708995 182.12777,41.9708995 C179.806877,41.9708995 177.985444,41.2239934 176.663416,39.7301587 C175.351182,38.2266239 174.695074,36.1508069 174.695074,33.5026455 C174.695074,30.8738846 175.365871,28.8077677 176.707484,27.3042328 C178.05889,25.8006979 179.914597,25.0489418 182.274661,25.0489418 C184.340941,25.0489418 185.995899,25.5921462 187.239585,26.6785714 C188.493063,27.7746968 189.193237,29.2879092 189.340129,31.218254 L185.094973,31.218254 C184.977459,30.3646342 184.681232,29.7171539 184.206281,29.2757937 C183.73133,28.8344334 183.097256,28.6137566 182.30404,28.6137566 C180.198588,28.6137566 179.145878,30.2627701 179.145878,33.5608466 C179.145878,35.0934821 179.415176,36.2671917 179.95378,37.0820106 C180.492384,37.8968295 181.275796,38.3042328 182.30404,38.3042328 C183.910058,38.3042328 184.859945,37.3584751 185.153729,35.4669312 L189.369507,35.4669312 Z M200.988603,41.4325397 L200.988603,20 L216.089021,20 L216.089021,23.7248677 L205.380651,23.7248677 L205.380651,28.5846561 L214.767,28.5846561 L214.767,32.3095238 L205.380651,32.3095238 L205.380651,41.4325397 L200.988603,41.4325397 Z M227.693428,33.6481481 C226.988346,33.9779558 226.185349,34.2350079 225.284412,34.4193122 C224.383474,34.6133167 223.918324,34.7151675 223.888945,34.7248677 C223.507026,34.8315702 223.188765,34.9503962 222.934152,35.0813492 C222.679539,35.2123022 222.471446,35.3602285 222.309865,35.5251323 C222.148283,35.6900361 222.03322,35.8816127 221.96467,36.0998677 C221.896121,36.3181228 221.861846,36.5678998 221.861846,36.8492063 C221.861846,37.4312198 222.052803,37.8943986 222.434722,38.2387566 C222.816641,38.5831146 223.330755,38.755291 223.97708,38.755291 C224.554855,38.755291 225.073865,38.6728403 225.534127,38.5079365 C225.994388,38.3430327 226.383646,38.1029557 226.701912,37.7876984 C227.020178,37.4724411 227.264994,37.091713 227.436368,36.6455026 C227.607742,36.1992923 227.693428,35.6997382 227.693428,35.1468254 L227.693428,33.6481481 Z M227.766873,39.468254 C227.22827,40.2927731 226.523199,40.9208532 225.65164,41.3525132 C224.780081,41.7841732 223.766542,42 222.610992,42 C221.053937,42 219.859233,41.5659214 219.026846,40.6977513 C218.194458,39.8295812 217.77827,38.585546 217.77827,36.9656085 C217.77827,35.4717738 218.194458,34.3320145 219.026846,33.5462963 C219.859233,32.7605781 221.244893,32.2222237 223.183867,31.9312169 C223.409102,31.892416 223.663711,31.8560407 223.947702,31.8220899 C224.231693,31.7881392 224.55485,31.7469138 224.917184,31.6984127 C226.728851,31.4656073 227.634671,30.9466531 227.634671,30.1415344 C227.634671,29.5013196 227.433922,29.0429908 227.032417,28.7665344 C226.630913,28.490078 225.960116,28.3518519 225.020008,28.3518519 C224.158241,28.3518519 223.497238,28.5191782 223.036976,28.853836 C222.576715,29.1884937 222.346587,29.6759227 222.346587,30.3161376 L222.346587,30.5489418 L218.351146,30.5489418 L218.351146,30.2579365 C218.351146,28.6282987 218.928912,27.3575883 220.084462,26.4457672 C221.240013,25.5145456 222.836215,25.0489418 224.873116,25.0489418 C227.115667,25.0489418 228.829381,25.4296699 230.014309,26.1911376 C231.199238,26.9526052 231.791693,28.0608393 231.791693,29.515873 L231.791693,38.5079365 C231.791693,39.1675518 231.860242,39.6598308 231.997341,39.9847884 C232.13444,40.3097459 232.364567,40.5546729 232.68773,40.7195767 L232.68773,41.4325397 L228.236925,41.4325397 C227.943141,40.8893271 227.786459,40.2345717 227.766873,39.468254 Z M235.669621,41.4325397 L235.669621,20 L239.944156,20 L239.944156,41.4325397 L235.669621,41.4325397 Z M243.939597,41.4325397 L243.939597,20 L248.214132,20 L248.214132,41.4325397 L243.939597,41.4325397 Z M251.25478,33.5026455 C251.25478,30.8738846 251.97454,28.8077677 253.414081,27.3042328 C254.853622,25.8006979 256.831738,25.0489418 259.348487,25.0489418 C261.855443,25.0489418 263.828662,25.8006979 265.268203,27.3042328 C266.717537,28.7980674 267.442193,30.8641843 267.442193,33.5026455 C267.442193,36.1508069 266.717537,38.2217738 265.268203,39.7156085 C263.828662,41.2191433 261.855443,41.9708995 259.348487,41.9708995 C256.831738,41.9708995 254.853622,41.2191433 253.414081,39.7156085 C251.97454,38.2217738 251.25478,36.1508069 251.25478,33.5026455 Z M255.588071,33.5026455 C255.588071,35.0837822 255.911229,36.2987171 256.557554,37.1474868 C257.203878,37.9962564 258.13418,38.4206349 259.348487,38.4206349 C260.533415,38.4206349 261.451476,37.9962564 262.102697,37.1474868 C262.753918,36.2987171 263.079524,35.0837822 263.079524,33.5026455 C263.079524,31.9312091 262.758815,30.7235492 262.117386,29.8796296 C261.475958,29.0357101 260.553001,28.6137566 259.348487,28.6137566 C258.13418,28.6137566 257.203878,29.0357101 256.557554,29.8796296 C255.911229,30.7235492 255.588071,31.9312091 255.588071,33.5026455 Z M273.215018,41.4325397 L268.690769,25.6164021 L273.02406,25.6164021 L275.638724,36.5727513 L277.842092,25.6164021 L282.204761,25.6164021 L284.525643,36.5727513 L287.140306,25.6164021 L291.282639,25.6164021 L286.802457,41.4325397 L282.527922,41.4325397 L279.972015,30.1124339 L277.504242,41.4325397 L273.215018,41.4325397 Z M292.472458,36.281746 L296.732303,36.281746 C296.800853,37.8725829 297.917215,38.6679894 300.081423,38.6679894 C300.913811,38.6679894 301.557678,38.5297633 302.013043,38.2533069 C302.468408,37.9768505 302.696087,37.5864223 302.696087,37.0820106 C302.696087,36.3738942 301.844127,35.8355398 300.14018,35.4669312 C299.797432,35.3893294 299.486515,35.3190038 299.207421,35.2559524 C298.928326,35.1929009 298.685958,35.1371255 298.480309,35.0886243 C296.404236,34.5648122 294.95982,33.9440071 294.147018,33.2261905 C293.344008,32.5180741 292.94251,31.5480661 292.94251,30.3161376 C292.94251,28.7059002 293.530069,27.4254898 294.705205,26.4748677 C295.899926,25.5242457 297.501024,25.0489418 299.508548,25.0489418 C301.643377,25.0489418 303.317921,25.5193956 304.532227,26.4603175 C305.76612,27.4109395 306.417331,28.7350003 306.485881,30.4325397 L302.328859,30.4325397 C302.299481,29.7632242 302.042424,29.2442699 301.55768,28.8756614 C301.072937,28.5070528 300.399692,28.3227513 299.537926,28.3227513 C297.931907,28.3227513 297.12891,28.8077553 297.12891,29.7777778 C297.12891,30.4179926 298.191412,30.9757472 300.316449,31.4510582 C300.561269,31.4995593 300.781604,31.5456347 300.97746,31.5892857 C301.173316,31.6329367 301.339791,31.6741621 301.47689,31.712963 C303.592134,32.2076744 305.041446,32.8042293 305.82487,33.5026455 C306.608294,34.2010617 307,35.1856197 307,36.4563492 C307,38.260591 306.365926,39.6307272 305.097759,40.5667989 C303.829591,41.5028706 301.96654,41.9708995 299.508548,41.9708995 C297.314961,41.9708995 295.591454,41.4810455 294.337976,40.5013228 C293.094291,39.5313003 292.472458,38.1829892 292.472458,36.4563492 L292.472458,36.281746 Z" id="Dominic-Fallows-Copy" fill="#FFFFFF"></path>
        <g id="icon" fill="#FFFFFF">
            <path d="M0,0 L60,0 L60,60 L0,60 L0,0 Z M10.4225852,43.2727273 L19.2116477,43.2727273 C21.590921,43.2727273 23.4493304,43.0951722 24.7869318,42.7400568 C26.1245332,42.361267 27.3082335,41.7634984 28.3380682,40.946733 C29.7348555,39.834038 30.7942672,38.3692089 31.5163352,36.5522017 C32.2384032,34.7351945 32.5994318,32.6252488 32.5994318,30.2223011 C32.5994318,25.81887 31.6140013,22.5341017 29.6431108,20.3678977 C27.6722203,18.2016937 24.6804178,17.118608 20.6676136,17.118608 L10.4225852,17.118608 L10.4225852,43.2727273 Z M15.6960227,38.5497159 L15.6960227,21.7173295 L20.6676136,21.7173295 C22.8811664,21.7173295 24.5087543,22.4038757 25.5504261,23.7769886 C26.592098,25.1501016 27.1129261,27.2985176 27.1129261,30.2223011 C27.1129261,33.1460847 26.5506685,35.2708267 25.4261364,36.5965909 C24.3016042,37.8986808 22.4964613,38.5497159 20.0106534,38.5497159 L15.6960227,38.5497159 Z M35.0426136,43.2727273 L40.3515625,43.2727273 L40.3515625,32.1399148 L51.6974432,32.1399148 L51.6974432,27.5944602 L40.3515625,27.5944602 L40.3515625,21.6640625 L53.2954545,21.6640625 L53.2954545,17.118608 L35.0426136,17.118608 L35.0426136,43.2727273 Z" id="Combined-Shape"></path>
        </g>
    </g>
</svg>