<?xml version="1.0" encoding="UTF-8"?>
<svg width="26px" height="23px" viewBox="0 0 26 23" version="1.1" xmlns="http://www.w3.org/2000/svg" xmlns:xlink="http://www.w3.org/1999/xlink">
    <g id="Mobile" stroke="none" stroke-width="1" fill="none" fill-rule="evenodd">
        <g id="Navigation---iPhone-SE" transform="translate(-147.000000, -524.000000)" fill="#0095CC">
            <g id="projects-active" transform="translate(139.500000, 524.000000)">
                <g id="projects-icon-active" transform="translate(8.000000, 0.000000)">
                    <path d="M3.2808399,22.8705882 L21.7191601,22.8705882 C23.5311179,22.8705882 25,21.4202326 25,19.6311281 L25,3.23946009 C25,1.45035568 23.5311179,1.15088742e-15 21.7191601,0 L3.2808399,0 C1.46888205,1.15088742e-15 0,1.45035568 0,3.23946009 L0,19.6311281 C2.33117695e-15,21.4202326 1.46888205,22.8705882 3.2808399,22.8705882 Z M1.31233596,3.23946009 C1.31233596,2.16599745 2.19366519,1.29578404 3.2808399,1.29578404 L21.7191601,1.29578404 C22.8063348,1.29578404 23.687664,2.16599745 23.687664,3.23946009 L23.687664,19.6311281 C23.687664,20.7045908 22.8063348,21.5748042 21.7191601,21.5748042 L3.2808399,21.5748042 C2.19366519,21.5748042 1.31233596,20.7045908 1.31233596,19.6311281 L1.31233596,3.23946009 Z" id="Shape" fill-rule="nonzero"></path>
                    <path d="M4.03534536,13.271193 C4.30976543,13.5269223 4.73442179,13.5114538 4.99025602,13.2364094 L8.57117097,9.27108568 C8.80960968,9.00526353 8.80960968,8.59775221 8.57117097,8.33193005 L4.99025602,4.33182275 C4.83728355,4.10969846 4.57160918,3.99860897 4.30978364,4.04728897 C4.0479581,4.09596897 3.83780608,4.29552664 3.77152077,4.55841651 C3.70523547,4.82130637 3.79492446,5.09950932 4.00124141,5.27097838 L7.13880499,8.7841161 L3.96713746,12.2972538 C3.72515609,12.5863802 3.75552943,13.0200805 4.03534536,13.271193 Z" id="Path"></path>
                    <path d="M9.39338235,12.1079585 L16.8566176,12.1079585 C17.2119479,12.1079585 17.5,11.8067964 17.5,11.4352941 C17.5,11.0637918 17.2119479,10.7626298 16.8566176,10.7626298 L9.39338235,10.7626298 C9.03805209,10.7626298 8.75,11.0637918 8.75,11.4352941 C8.75,11.8067964 9.03805209,12.1079585 9.39338235,12.1079585 Z" id="Path"></path>
                </g>
            </g>
        </g>
    </g>
</svg>